<?xml version="1.0" encoding="UTF-8" standalone="no"?>
<svg
   xmlns:dc="http://purl.org/dc/elements/1.1/"
   xmlns:cc="http://creativecommons.org/ns#"
   xmlns:rdf="http://www.w3.org/1999/02/22-rdf-syntax-ns#"
   xmlns:svg="http://www.w3.org/2000/svg"
   xmlns="http://www.w3.org/2000/svg"
   id="SVGRoot"
   version="1.1"
   viewBox="0 0 32 32"
   height="32px"
   width="32px">
  <defs
     id="defs6218" />
  <metadata
     id="metadata6221">
    <rdf:RDF>
      <cc:Work
         rdf:about="">
        <dc:format>image/svg+xml</dc:format>
        <dc:type
           rdf:resource="http://purl.org/dc/dcmitype/StillImage" />
        <dc:title></dc:title>
      </cc:Work>
    </rdf:RDF>
  </metadata>
  <g
     id="layer1">
    <path
       id="path3715"
       d="M 0.55116429,1.2276139 20.078227,0.65903994 9.0720656,14.304785 17.592963,31.361961 H 1.6162774 L 3.036427,25.676244 h 7.100752 L 5.1666513,14.304785 11.20229,3.5019041 1.9713158,5.2076215 Z"
       style="fill:none;stroke:#000000;stroke-width:0.15725276px;stroke-linecap:butt;stroke-linejoin:miter;stroke-opacity:1" />
    <path
       id="path3717"
       d="M 31.439424,2.3647633 17.947999,2.9333384 17.592963,31.361978 31.439424,30.224824 30.729347,21.12767 21.143339,22.264809 20.788297,9.7562112 h 9.230976 z"
       style="fill:none;stroke:#000000;stroke-width:0.15725276px;stroke-linecap:butt;stroke-linejoin:miter;stroke-opacity:1" />
    <path
       id="path3721"
       d="M 6.9177701,17.327671 C 6.5526468,17.036293 6.3619884,16.739322 5.9809562,15.868498 5.7178399,15.267169 5.4758877,14.640557 5.4432785,14.476034 5.3942455,14.228627 5.8619844,13.319589 8.1482675,9.218938 9.6686187,6.4920566 10.965508,4.1709333 11.03024,4.0608854 c 0.303537,-0.5160236 2.373237,0.8428214 3.268691,2.1460271 l 0.520553,0.7575853 -2.918052,3.6098622 c -1.604926,1.985425 -2.9328488,3.628931 -2.9509389,3.652234 -0.018094,0.02323 0.091743,0.294379 0.2440895,0.602413 0.1523287,0.308039 0.2769812,0.653159 0.2769812,0.766955 0,0.378498 -0.509419,1.428321 -0.8562077,1.764507 -0.4742566,0.459751 -1.0954178,0.447752 -1.697582,-0.03277 z"
       style="fill:#0000ff;stroke-width:0.11232331" />
    <path
       id="path3723"
       d="M 7.4677557,17.561221 C 6.9449431,17.358297 6.4717422,16.805244 6.0754035,15.933918 5.4820716,14.629523 5.4398765,14.465997 5.5973351,14.081144 5.788735,13.613328 6.7352084,11.867287 9.0607478,7.6918512 L 11.10828,4.015566 11.547824,4.098927 c 0.625082,0.1185653 2.145475,1.3429301 2.722212,2.1921919 l 0.468367,0.6896853 -2.899699,3.5891158 c -1.594836,1.974015 -2.8997018,3.63393 -2.8997018,3.688702 0,0.05475 0.099856,0.334942 0.2219035,0.622546 0.3058682,0.72086 0.2806198,1.010933 -0.1536608,1.765442 -0.4894578,0.85037 -0.9697929,1.135733 -1.5394872,0.914609 z"
       style="fill:#0000ff;stroke-width:0.11232331" />
    <path
       id="path3725"
       d="m 17.732423,29.11885 c 0.0036,-1.163232 0.07414,-7.407025 0.1571,-13.875099 0.127952,-9.9725385 0.170841,-11.7912308 0.282247,-11.9647201 0.105262,-0.1639731 0.664171,-0.224802 2.815709,-0.3063945 l 2.684362,-0.1018013 0.298095,1.0504269 c 0.438276,1.5444704 1.212055,5.1060042 1.212055,5.5787963 0,0.05018 -1.021389,0.09127 -2.269753,0.09127 h -2.269752 l 0.04899,0.7462517 c 0.02678,0.410436 0.115107,3.272847 0.195934,6.360909 0.08083,3.088061 0.161494,5.641364 0.17935,5.673996 0.01769,0.03234 0.994076,-0.05324 2.169373,-0.190575 1.175296,-0.137398 2.159501,-0.213686 2.187118,-0.169522 0.08234,0.131898 -0.227627,2.387321 -0.563799,4.101748 -0.329774,1.682053 -0.967204,4.19049 -1.133113,4.45922 -0.06079,0.09841 -0.951354,0.220298 -2.360982,0.322857 -1.244849,0.09067 -2.572914,0.203662 -2.951249,0.251076 l -0.687885,0.08639 z"
       style="fill:#008080;stroke-width:0.11232331" />
    <path
       id="path3727"
       d="M 3.3896659,30.505851 C 2.0627786,29.456247 2.1308582,29.72635 2.6592621,27.60799 l 0.4520686,-1.81232 h 3.5795332 c 1.9687413,0 3.5795311,-0.02855 3.5795311,-0.06362 0,-0.03473 -0.7607381,-1.801539 -1.6905252,-3.92606 -0.929789,-2.124197 -1.674012,-3.888888 -1.6538261,-3.921211 0.020181,-0.03244 0.2225258,0.008 0.4496468,0.08945 0.8472799,0.304075 1.5999593,-0.242216 2.0579015,-1.493599 0.1951779,-0.533353 0.2605811,-0.62103 0.3490614,-0.467955 0.3161736,0.546974 5.1191576,10.252685 5.1618726,10.430944 0.06315,0.263537 -0.950642,1.882013 -1.748449,2.791306 -0.315459,0.359491 -0.913062,0.932136 -1.328013,1.272435 l -0.754457,0.618717 -3.4191101,0.04043 -3.419114,0.04043 z"
       style="fill:#808000;stroke-width:0.11232331" />
    <path
       id="path3729"
       d="M 14.450536,5.9480699 C 13.753394,5.0229631 12.725966,4.1517958 11.957043,3.8338083 11.639846,3.702643 11.356126,3.5325989 11.326553,3.4559842 11.291479,3.3651029 10.998077,3.3670865 10.48312,3.4618455 6.2807856,4.2331766 2.6233025,4.9178527 2.3624489,4.9820301 L 2.0434318,5.0603441 1.402751,3.2599812 C 1.050373,2.2697812 0.77454311,1.4413469 0.78979387,1.4190223 0.81476773,1.3824525 19.698529,0.81054704 19.741182,0.84509629 c 0.08287,0.0671307 -1.59507,1.92345491 -1.738614,1.92345491 -0.120972,0 -0.187642,0.090183 -0.187642,0.2539245 0,0.1396703 -0.189729,0.4826627 -0.421605,0.7622049 -0.231889,0.2795364 -0.86097,1.050416 -1.397961,1.7130479 l -0.976346,1.2047854 z"
       style="fill:#ff0000;stroke-width:0.11232331" />
    <path
       id="path3731"
       d="M 25.321058,9.0946309 C 25.226841,8.2905971 24.672591,5.7111317 24.29221,4.3066524 24.098315,3.5906795 23.962786,2.967678 23.99105,2.9222109 c 0.03744,-0.060218 7.182492,-0.4243351 7.286901,-0.3713135 0.0087,0.00435 -0.288352,1.5903797 -0.660277,3.5242715 l -0.676242,3.516172 h -2.281096 -2.281093 z"
       style="fill:#800000;stroke-width:0.11232331" />
    <path
       id="path3733"
       d="m 24.028099,30.545751 c 0,-0.04568 0.126123,-0.541208 0.280261,-1.101605 0.548429,-1.993744 1.038495,-4.607435 1.36529,-7.281632 0.0344,-0.278999 0.148989,-0.305259 2.433804,-0.557057 1.31891,-0.145318 2.427477,-0.269435 2.463493,-0.27581 0.06746,-0.01176 0.765965,8.586601 0.705408,8.683582 -0.03583,0.05742 -6.233503,0.611334 -6.871033,0.613823 -0.207466,8.17e-4 -0.37724,-0.03615 -0.37724,-0.08129 z"
       style="fill:#008000;stroke-width:0.11232331" />
    <path
       id="path3745"
       d="m 12.359966,30.468427 c 0.955616,-0.875769 1.298916,-1.290808 2.17088,-2.624543 l 0.665694,-1.01822 1.088954,2.185716 1.088956,2.185725 h -2.904798 -2.904797 z"
       style="fill:#0000ff;stroke-width:0.11232331" />
    <path
       id="path3749"
       d="m 1.9445684,30.483305 0.185236,-0.713809 0.2314496,0.244187 c 0.1272951,0.134249 0.4839917,0.455485 0.7926495,0.71381 l 0.561194,0.469612 H 2.7372159 1.7593323 Z"
       style="fill:#333333;stroke-width:0.11232331" />
    <rect
       y="1.1087959"
       x="0.55116391"
       height="30.819176"
       width="31.195314"
       id="rect3878"
       style="fill:none;stroke-width:1.97634077" />
  </g>
</svg>
